<?xml version="1.0" standalone="no"?><!-- Generator: Gravit.io --><svg xmlns="http://www.w3.org/2000/svg" xmlns:xlink="http://www.w3.org/1999/xlink" style="isolation:isolate" viewBox="0 0 120 127.5" width="120" height="127.5"><defs><clipPath id="_clipPath_dPUv0KHJeaYKxrVLrvScYN6OpXvmRE4d"><rect width="120" height="127.5"/></clipPath></defs><g clip-path="url(#_clipPath_dPUv0KHJeaYKxrVLrvScYN6OpXvmRE4d)"><path d=" M 10 56 C 10 28.404 32.404 6 60 6 C 87.596 6 110 28.404 110 56 C 110 83.596 87.596 106 60 106 C 32.404 106 10 83.596 10 56 Z " fill="rgb(240,240,240)" vector-effect="non-scaling-stroke" stroke-width="0.2" stroke="rgb(0,0,0)" stroke-linejoin="miter" stroke-linecap="square" stroke-miterlimit="3"/><path d=" M 28.5 56 C 28.5 38.615 42.615 24.5 60 24.5 C 77.385 24.5 91.5 38.615 91.5 56 C 91.5 73.385 77.385 87.5 60 87.5 C 42.615 87.5 28.5 73.385 28.5 56 Z " fill="rgb(0,255,102)" vector-effect="non-scaling-stroke" stroke-width="0.5" stroke="rgb(0,0,0)" stroke-linejoin="miter" stroke-linecap="square" stroke-miterlimit="3"/><path d=" M 72.443 76.255 L 59.484 66.406 L 37.75 57.704 L 52.758 51.405 L 71.162 36.934 L 69.113 53.081 L 72.443 76.255 Z " fill="rgb(49,27,85)"/><path d="M 14 88.5 L 106 88.5 C 108.208 88.5 110 90.292 110 92.5 L 110 112 C 110 114.208 108.208 116 106 116 L 14 116 C 11.792 116 10 114.208 10 112 L 10 92.5 C 10 90.292 11.792 88.5 14 88.5 Z" style="stroke:none;fill:#FBFBFB;stroke-miterlimit:10;"/><path d="M 14 88.5 L 106 88.5 C 108.208 88.5 110 90.292 110 92.5 L 110 112 C 110 114.208 108.208 116 106 116 L 14 116 C 11.792 116 10 114.208 10 112 L 10 92.5 C 10 90.292 11.792 88.5 14 88.5 Z" style="fill:none;stroke:#000000;stroke-width:0.5;stroke-linecap:square;stroke-miterlimit:3;"/><g transform="matrix(1,0,0,1,16,91.5)"><text transform="matrix(1,0,0,1,0,18.555)" style="font-family:&quot;Roboto Condensed&quot;;font-weight:400;font-size:20px;font-style:normal;fill:#000000;stroke:none;">R3CHAPPI</text></g></g></svg>